<mxfile host="65bd71144e">
    <diagram id="1E04QNTLLfXlncXK49PP" name="Page-1">
        <mxGraphModel dx="837" dy="479" grid="1" gridSize="10" guides="1" tooltips="1" connect="1" arrows="1" fold="1" page="1" pageScale="1" pageWidth="850" pageHeight="1100" math="0" shadow="0">
            <root>
                <mxCell id="0"/>
                <mxCell id="1" parent="0"/>
                <mxCell id="3" value="" style="pointerEvents=1;shadow=0;dashed=0;html=1;strokeColor=none;fillColor=#4495D1;labelPosition=center;verticalLabelPosition=bottom;verticalAlign=top;align=center;outlineConnect=0;shape=mxgraph.veeam.laptop;" vertex="1" parent="1">
                    <mxGeometry x="31.600000000000023" y="150" width="58.4" height="44" as="geometry"/>
                </mxCell>
                <mxCell id="4" value="" style="verticalLabelPosition=bottom;html=1;verticalAlign=top;align=center;strokeColor=none;fillColor=#00BEF2;shape=mxgraph.azure.git_repository;" vertex="1" parent="1">
                    <mxGeometry x="60" y="100" width="50" height="50" as="geometry"/>
                </mxCell>
                <mxCell id="5" value="" style="shape=mxgraph.cisco.misc.vss;html=1;pointerEvents=1;dashed=0;fillColor=#036897;strokeColor=#ffffff;strokeWidth=2;verticalLabelPosition=bottom;verticalAlign=top;align=center;outlineConnect=0;" vertex="1" parent="1">
                    <mxGeometry x="20" y="110" width="30" height="40" as="geometry"/>
                </mxCell>
                <mxCell id="24" value="" style="verticalLabelPosition=bottom;html=1;verticalAlign=top;align=center;strokeColor=none;fillColor=#00BEF2;shape=mxgraph.azure.github_code;pointerEvents=1;" vertex="1" parent="1">
                    <mxGeometry x="230" y="120" width="50" height="50" as="geometry"/>
                </mxCell>
                <mxCell id="25" value="" style="sketch=0;outlineConnect=0;fontColor=#232F3E;gradientColor=none;fillColor=#3F8624;strokeColor=none;dashed=0;verticalLabelPosition=bottom;verticalAlign=top;align=center;html=1;fontSize=12;fontStyle=0;aspect=fixed;pointerEvents=1;shape=mxgraph.aws4.iot_analytics_pipeline;" vertex="1" parent="1">
                    <mxGeometry x="340" y="124" width="78" height="42" as="geometry"/>
                </mxCell>
                <mxCell id="26" value="" style="outlineConnect=0;dashed=0;verticalLabelPosition=bottom;verticalAlign=top;align=center;html=1;shape=mxgraph.aws3.cloud_2;fillColor=#F58534;gradientColor=none;" vertex="1" parent="1">
                    <mxGeometry x="530" y="40" width="50" height="55" as="geometry"/>
                </mxCell>
                <mxCell id="27" value="" style="verticalLabelPosition=bottom;html=1;verticalAlign=top;align=center;strokeColor=none;fillColor=#00BEF2;shape=mxgraph.azure.azure_subscription;" vertex="1" parent="1">
                    <mxGeometry x="532.5" y="124" width="50" height="35" as="geometry"/>
                </mxCell>
                <mxCell id="28" value="" style="shape=image;verticalLabelPosition=bottom;labelBackgroundColor=#ffffff;verticalAlign=top;aspect=fixed;imageAspect=0;image=data:image/png,iVBORw0KGgoAAAANSUhEUgAAALIAAACLCAYAAADF/8MNAAAgAElEQVR4Ae2dd3gU17nGcdq9TuLn3hvHN7lpT5wbF4xNcq+TuFFsx75OjMFxwQGbInoTHUyvpssU0QSmCyFA9KKKQHQQILoQCNSl1apundk/3/u8ZzXysOyutE3SjuaPeWZ2Zs6ZU37nPd/5zpnZNgDgcDj0TS+DsGagjQ6y3oi1IGQ6yLoSh7USK41QB1kHWQdZaQ36XjdPmpsBXZF1RdYVublbof58vSdQGNAVWVdkXZGV1qDvdWVsbgZ0RdYVWVfk5m6F+vP1nkBhQFdkXZF1RVZag77XlbG5GdAVWVdkXZGbuxXqz9d7AoUBXZF1RdYVWWkN+l5XxuZmQFdkXZF1RW7uVqg/X+8JFAZ0RdYVWVdkpTXoe10Zm5sBXZF1RdYVublbYUt5vizZIVutkE21kCuMkMpKYCnIgykvF/abV2E5mQZr5lmY7t+FOf8+pNJiSEYD5OoqyGYzHDYbHLKsCaCaq050RfZXke02yJUVsGZlomb/LtTGRKF6wRRURPaGsfu7KO/yKsq7vILyt9rD0KkdDG++hPL3/+I8360jjBH/QOWk4aiOmona2HWwnjwG+/27kM0mHWg/6kQH2ddCkyTY791B7ZY1qBzdB8bP3kH5//0vDG88C8Mbz8HQ4XkYOr7w7dbpBRg6v+jceKxc430dnoPhtf8W14xdO8DYpwuq50yA5UQqbMZyyLpKN7pR6yA3EmSbzQbrlUxUTokUqmp480UYOrZ1qq0CaiB7qjbj69wOhr+2h7F3V9TGbYRUbmh0ZTZXt94SnquD7AVkKqJcUw3L8WQYIz5EGdWTShoIsI0N27Etyl79HQxvtUf10q8gFRXAYbfrUHuoLx1kDwXjsFpgyjyPqrkThG0rzIbGQhjM+6jUHZ5HRf+PYE7YDqmsVIfZTZ3pILspFKm4EDXRC2H89K9OG5YwBRNOX+Pi819/BuXv/BGVkb1gPZUONrSW0KW3lDToILuALOXfR8WwnhA2sHqg5it8IbnfaUeXd30dpr074LBZdZjr6k8Hua4gZIsF1nMZMH7RBWWvP9O8CtxQI6jzflQvngGpslKH2eGADrLDIQZ0pvhNMLzdvs5zUOcuawio5rzeoS3KXv4V0udtxr1SGZLcuqfJWz3InICo3bTKOaAT7q8wgFi46l7A/o9H4h9f5iJyswU3C2TIrRjmVg+yaU8cDG+9FDx/cMhV2mknx/WYig8mF6DDTBNen2kSMBdXtN5p7tYLss0K8754p6825PAFS+XbobRjOxz4aAS6TcwVEBNkbn+eZkLkJguqTK0T5tYJsiTBknoE5e+9HD42sXABtsOBT0fiw0n3H4JYDfOkHRYYa1ofzK0SZPvdbFQM/gyGFude86DcndqhsHN77Px04iNKrECs7DvNMWHjcRus9tY1+Gt1IMtVlaicGhlCiJ2TF2WvPI2yP/4MZX946uGN51/7vQ/P52RMO2z/fAben1zoVokViLl/Y6YJ7y82I+Om1KoGf60O5Nodm4LvJ2a3/+ZLMHR+TizhrJo+GrVbY2A5mwFbzq36zZp5Dubkg6heuQgVQ/7p9JS8WbdYSJgOrorcDqUd2mJvt6HoOjm/QYgVoF+dbsKAGAtKK1uPidGqQJaK8lH+UWfnUspgDPBomrzdHsYBH6NmxQJYL5yGVFLUqAkKubYW9pzboNekcuIQlHfr8LC93qkdijq1x75PRuLj8dmNhliB+bUZJmw6bmtUWlrKNHMg6Wg9IFstqF40XaxZCHjdBNXzladh7NYRtbHrYc/Ngezv2gdZhmQsh/VkGionDUPZn38NQ4e2Ip1beszwSYkViLknyO8tMONOkdQqYG41IFvPZqD8b39yrvcNSI2dNmvVzLGw37gavPUOXDJaVYnauA0o/vgdJHQfV+8nVgPqy/H/TDVhxq7WsbioVYBMQKqmjXQqXaAQv90etRtXheyVJK6Bvn3HiEHR5WLg5gu47u7tPNeEs9naX8fcKkC2XcmEsfs77mfvOr2A8veeh/HDZ2Hs/gyMPZ5GxedPo6LXb2Hs+TSMPX4H46fPwNj1WZT//UUnxLW1Ie+uaRJErLWAAzd3gDb23KszTIg6aIXFpm13nPZBtllRu2WtcxpapcbGD55D5ZBfoWbmf8Ac/QQsG34E6/Yfwhr/A9h2/QC2hO/DuvMHsMb/CyyxP4Rl/Y9gXvskpJuzIZenw2EphsMRWq/ArUIJ/WMseCUAmOmO+2KVBdlFoU1rIAO1YITVPMh8Pb8iso/zRc/OL8L40e9RM+ensMb9APYj34GU+Bik5DY+bI9DSnsS0rk3IOdGwWEP7TJKrmz7dJk5IGXuPMeEhPN2Ta+Q0zzIHJCVd3kZFb1+g9oF/wYpqQ2kVF/A9XAv40lsA+lUW8h3ZsFRcxMOOfjuLi7P3HvBjrfm+m9iUNEnbNf2OgzNg2zavQjVY56ALeF7wQHYVb0JNLdTL0LOWwWHKS/o9nNJhYxxsRbhUmusbay+j664T5aZoeXVcdoFWTJDLt4D2/7fwn74MUgpHpTVFUx/fwul/zGkzL/DUXo46Op86pYdnQJQ5Y6zTFhy0IoiozZtZW2CLNVAvjcf0rH/9MH2DRboj0HKeAZyyW445OC5vWx2B6bGW/Dy1ABMjBkmRMSY8aBMe5Mk2gPZVgE5Zzqk1B83A8R1jYHqfOyncBRugcMePFfdxRwJL0/zH2SaG2/MoBfDjGt52lpUpC2QCXH2qNCbEY0xP+psZzlnMhz26qDYzfQFf7zU7LetrNjNtJn7rLEImIPh+moJcWgHZNrEOXOaT4XdwU2Y055wDgIlc1BgXnbYij8FqMoEmjD3W6OdtRiaAVnO2wAp7SctC2QB92OQTvwWcukBOByB26ap1+zoODsw80JRZu77xZhRbQ7/AaAGQJYhG08L95dvExvBGtw1EE/Sd5yejNq7QVHkGwUS3gzAe6GGmMevzDAhOtEKDiZbgongbxrCH2RrCaQrH7VAJa7zL9MdV3kpaJBwsXy3KHNA6y/UMHMKu2uUGenX7ZCk8IU57EGWC2MhpTze8kBObAP5yqdwBEmJFaUyVMn4bHngAz41zJz5G7stvGf+wh5k6fRLzpk1d4Ot5jqX1AYyldgc/Fm+8moZPVeYA1pIpIaYx1Rlfhsj7Wrw/N5Kw2uqfViDLOevd653CCqw34eU/MNvt6Tv+ab2tIkvdQvJVDWhMFbLiFhjRqfZJnQkgDOcILrC6etvfhdj4FpL2L59Hb4gW8sgnf5D8NT4+C8gZ/4N8u2xkHOXfbvdHA75wtuQjv2k4WfR3ZbZxbmAyOUrn8FSJrPVgaQrdmxKt4HfsOi12gx+AoBA+wqv6/1c+5wapqoctiDLhdshpf6bb2rpqtwEL/VxyFf7QC7d51xjLLu8GiSZhIkgF8dCzvrc+TyGcxOXnPVF0G1ibw2golbG3RIJCefs6Bltxl8CWLdMqAnyiE0u+Q9Rg/SWL3+uhSfIsgXyjT6QknxdS6wCsA5GuWAjHPaqhhfJyxIctkrI95c6lVkNMwd2wibOD5p3wpfKtEsOXMuX0HeNOaC1GIS525LwXIsRniCbHkBid++qio39TQjTn4Bcssd38MQM4mxIKf9ap87fhZT5QZMqsSfITVYHvtxuCUiZ+Y4fXXGentFSz4cnyMaTYoWZ3yCnPA757jw4JD+7UWsZ5KzekDgQvNQyIFYAu1/mdM/5azN3mmXCwgNWUOWVOMNhH4Ygy5BL9kFK/y//Ffnsq4EPyCrOQb45ukUosRo0ztBtzbD5/UYJG0DklvD7EGL4gSzbIOdFQUr5rp8g16kxbd5ABjIMb68JLI5Anu8l7M0CCT2izWLJpqtnoqHfBLlfjAV5hvBafxGeIOcu9BNi5zph2XiqRQIYUMNSgW22OTB7j9UvdxxB/mipGVcfBNjQVekJVr68xRN+IEsWyDmzG/bpehr4nfglHJYSTYPMCt96woZX6z4C3pAKq68T5H98bcaV+zrIoYVEgDzLP5DprTj1m6C/T+dNKZrr2p7zdrw+y/dJEoLMRUSZ93SQmwBkPxWZr++f/jUcUvBeP2ouUBt6rg5yE9s2DVXII9dlq/NNEPWEhCczwt35E7+Aw8qvBIWXe8mX9MoOB7Zl2PCan6aFbiM3BRz0WuQu8n+wl/YkZGOGpkGuNjkwK8EK+oTV9m9jjmladF9uxo183bQILSSyHXL+mgDWIH8fcvZoOIL0Dp0vStlU9/INaX6QhVA2Bl71PQwzcL0FhWH2/Yvw81pQ9csSIaX/yn9VPt0ejsrM0Da4puid3DyDb1qvTraK9cVqQBt7TJDHbbei1hJepld4glxxHtLJF/0HObkN5OzxLXZCIxDlfmCQ0T2Qjx7OMmHBfits+hR1E7RkcwHki+8GBLKU/jPIeWvhkFrm7JyvMHNtBGf0xsdafDYn1GrdcU54rkkOT0WmL/nGIEjJ/k5T1y3n5MDv1gA4rIawNjMI8ZlsCb1XBwYxgaYPORy/DxeeIDtkyMW7Al9YL9xz34V84U3kFhyG0RLabx37qrKNuZ+Dsm/SbPhgidlvu1hRZH5XbtQWS1h+RzlMQXaISQ3pXNuA39mzJT+GtENPoeOOjnhrX1+MO7kIG28kICEnGXvvpQZlO3wnC0lZVhy5ZAvKduCiDfziUORGi1gYxPftFBgD2fMNk+t54eV2Uxp7+ILscEAu2OzfVLVqouT0oSfRZeebeDGuK56P64Ln4rrg6dj3grq1XTcJL88sEp+64ueugrkFAq46LD+hxT9lD9f/GglrkB38aOH5Dv7BnNoGCQd+ia51EBPkUGztGO/6KQJkf/y6athCefzOPBNO3gpPNaYqhzfI9KOWH3Z+fdPHKesjB3+OzvHvhgRedYMIB5D50umUeP0DLc074rcZIV/6BFJy474/QZv41KEnQ67ECswtHWSt/Al7+CsyVbnqEqRzr0FK/k6DvuWjh3+Od+PfDrkShwvI/CbGxuO2sP0wiyYGe0om+G9KckkCpGP/7tVezjj0U7wV/06TQUyYW7Ii09vBj7wYa8Lrtab6eldN0WtDkZkhLu/MW+3eHZfSBkcO/Rx/bWKIWzLIhLj/WgtKKsMfYm0M9lStkhnia/7q/w+hTZx88GdNrsQt2bSgq21wGK5wc6fEyjntKLICtGQS/0gqHXtK2Mvph57CJ7s6Nqk5oUDcEhWZX90ctsEi1mUoEGhhrz2QCTT9y/nrcCLtFTFjpwarqY9bio3MbyDTQ7H4gBX8W2D+o6oWAFbyoE2Q62zmkuoHmHpmKV6I+0BsTQ1xS1Fk+om7LDbjQKYd/KyWUvla2msX5DpTw2K3Yu21nXh5d3e8EN9VAC1UMkQzea6NpbkUmerLmUD+cc7YrRZkF8mQNabC6oaoeZCZWbssIctwG0svb8YnSWPwp93d8dz299E27oOQ285NDTJNCP5d7ydLzZi804JDmXbxcXB1pWvxuFWArFScTbLjQVUhEnKSMP7UYry9LwLt4j7A77f/TSwYCoVShxpkKi8XIdET0WWRWXgjYlJtyMyVNPG3Y0rdNbRvVSArhUGFrrbWoqTWgH330hB9JRbdj45G+x0f4tm494O+hXLREF9rmrLDgr0X7LhTLIvJDavNAX4SQMlva9i3SpC9VWy1rRbB3mqsVtRYHEHftGzzeqsjd9d0kFuZcrmDQAvndJB1kDVhgugg6yDrIGuhS9LzoI1Boa7IuiLriqyrmTbUTAv1qCuyrsi6Iqtbst1uR0VFJa5kXUVSShp2xO/GttgdiI3biUNHknDt+g0YjUbwPnW4cD+ura0V+dJi3sKpbgJWZFmWUVJaioOHj2LS1JnoFTEI//yi3yNbxMBhGD9pGg4dSURZmQEMF04F5SmtCXv2Y+SYiRgzfjIKi4qaNE9Wqw1sSNxMJpPmRMJTmbs7HzDIufcfYOGSpeg7YCg+7zMAPXv3F9sXfQeid7/BAmye69Grv7jOc4ujluPWrWxNwMxe57PPI9CjVz/k5Yf+L3wlScKDB3lIO3Yca2I2YEnUcrFFLY3Ghs1bkXHyNMrLjY80KLPZjAsXM3H8xEnkFxQ+ct0dHM15Ljf3PtKPZ+BiZmajGmhAIJ+/mIlBw0aC0BLizz7vi0VRS3Hm7Hnk5xeIjZXL3yxw3sN7uR08dLRRCWzOwmzMswkyeyA21lCDXF1dgw2btmLw8FHo3W+IeCYb0ac9+qB7z76ifPsOGIbR475ESlo6bCozrsxgwKhxkzBgcCQSk1NbPMg7diaAeflyygzYbLYG0+sXyDQLbmffweBhI+vhHDJiFM5fuOj1gVeyriFy9His37BZdIWNAaWl39MUILO88/LyRaUSWArBkBGjMX9RFHbs3I3EpBTEbo/HrK8WoN+g4aJO2LC2bY+vF4vSsjJEjp4gGkA4gBy/MwG9+g7E6HGTQgcyBzbsyligtImnTJ+NrKxrYLfXEHi0j2tqtPOvSqEGmRDTlJgxe54wX4ZGjsaWbXHIybn7SHlTubKuXkfUsmhwTDJ52iwxAGed6CC7uKdYsKdOn8WAIZECYnZzly5feaRQGwJaK9dDDTIHcbSFKRoDhowQZW+xeP8z+PLychw6nAiOX5Ry1kF2Abm21oTlK9egZ2/nwG7FqrWwN0KJlQL1dc9BSlVVtTBF2Ih8CW+1WuvCmn0Kx2eYTM7nMg5vz2wsyI2Nz/VZNMc4QKapkH7iZKMFg+qsLi8dZBeQaVZMmDRN2GEcqWffueO1ol0rpqHfXBBOfzRVnwPHMeMnYfjIsRg1diLmLYzC6TPnhN9W8gB1rcmEy5ezRGMbN3GKCEu7fNbc+cK/XVFZ+VAFq9NDpbt5KxsrV6/D6LrnRo6ZgHXfbML9+w9wNClF+MYPHDwMDp4Y1hPIhIgNkPmYt2CJGBswHyy7rbE7RHxq0NTpUI55PXr1WnTv2QeLo5ahpsb/v4nwBjLLkvXKsqVZQpOE6YxaugLJKcdQXFJab2sraaPnIyk5Falp6R5NxeLiEhw+kiTKgGWhhOWeApGTcw8c1PF5dM1Gfb2irn4rhO3fKyKENjIzQDuNCsHKptKoE6g+rqioQEFhkdetsKj4oQri/cuiVwuzhQ3FdWNPMHf+Yty6nQ1XmFnghI72oWs4/qZ3gfb8xcxLsLqMhFmRHBzRZHIXlhXbf/AI/POLCIydMEXYqMyrO5AJ4J07OZg7f1G9R4NxssyUdIz/cioyMy97LDvGXVVVJZ5JRWYjCqTn8wQyxzWcrPpq/mKRPpYR80lvlJJWgkbIbbZvJ7M4YGS6eB/jVte7cpxx6ozwqEycPF00XOV8ZVUV9uw7iAGDRwhP1xd9BwlPTJ/+Q0V50cPFnp7jr5AN9m7euo0+/Z2un1lzF7jNgJLgA4eOYMr0OV63mXPmC98nw1CJ58xbJAqUwBKqZStWCwVbHr0awyLHiGt0482cOx+lpd8WIAeQUctWisLndRbwoiVLxcCIcYwa+6WwM3mNDZCVpyiiyWzG9h27xIie1+kTn/3VQmzeul3Yp2MnTBbPZcHSVh03capXkItLSoRHgXFxGx45FqvWrsfOhD0iTQOHRor4RowcJ7w/Snm57u/evSd81BSOy1eyvJa1a1jX355ALikpxbSZcwVAQ0eMRlz8bpw9fwGZl64I2Nir0cXHXu369Zv1aSDIfQcM8RlkzuyyUbKxMF6WM2eCmb9Tp8/g6+UrRb0PGuocg4UMZE5ksEKpLlQc1wJT/6bPk4ll5XvbNm2JBWepVq1ZVw8qC/B2draYtbJYrWL/QLigZtbfE/PNpvrn707YJxSCz2Hm6Qqsrq6GxeIMS+XnxA0Vh3DR66J4Ty5dzgIrkWH79BuCxOQUoYY0NdjjsBeiq6sxILOiONCiWgmIR45D9p0cYePTbmWajqWfEArESSKqnSeTITPzUj1EbHjqsvX12BPIMes3ijIZOXaiaFTs8pUGTj80y23+wighEOyV6Mvms/0FmbPAYyZMFvmiOLHXUbxdfC7jpwBSTEKqyHQFDRk+SsBEpVIS4a5gE/buF2pE/6XrRlViQrnRZiwsLBKtm79HjBonPCFKgarjpt3F64SOjYnuPNqrc+ctcoLYfwgOH01yW+lGYwVYYQxHtb+TcxeEddPW7fU2/6atsW7D0r3IyQQ+15siV1ZWYcaseSK+nr3648qVqyI+As4ulWtRaIeyohgX92fPnXf7zFCDzDJnGljmXDrgaR1M5qXLouHRVufMYCAgU305cTZh0nQYKyrc5psmKXtT1lPIFJkPnzB5uigAKs7t254He1QaKoHrxlZJFWYB0kw5cjQJySlp6NvfWbkLFn9d7/9UQ8xjgrdh8zaRSU4OUE05OcMMs1LYYNi1u4ZTfrPRUAmpzMczTooBGc0Z5oUbZySVe9V7VjJ9ubzHG8jsqpkGVgLtca6DuHsvF/sPHgHNKFYinz14+EhMn/UVNm7eBjZO9bOUY07Tskdjb0GYlPP+7N0pMsuOs4Ljv5yGnLv3PMbPscf0WfPE7GFc/C5xn7+KzEE3bW+OZeiR8pQXLjZjfYYMZHoFolfFiAplgqJXx3hsyZ4Sye516YpVAmQqEls5FaFXxGD07jdIVK4ntxeB2nfgsHD/EWSOmqlytJ8JGeHwVkAc6BEywkR14LoE2rAMO2hYpNceZvPWWDHY8wayMoYQjWrMBKzfuEWoT++IwQIEei7Wb9iCc+cvikVG3no0NtphkWMbVExP5aw+7w5klh1Bpp3K6+r71cf09NAsU+qb1/wFmYurWP5HE1O8ljXNC5ZZyEBmd8+FKXTOs7L6DxohFnaoM97QMQ17DmAYnoMyKrQCMlV65Zp1MJvdO/1Z8VQ3FgZB5vTs1es3xGCE8XHgothx7tJx8tSZekWma0gBmWHZO3hqQIyL6kmF9AYy1ZdmE+NjXrhnD8CGxpVytPPZ0NyZTe7Sy3EG88mBNe1Jd/c05pw7kFl2TpAXiDrwFA9dZwsXO0GmR4n3BQpyYlKqV5ApVr36htBrwUzQhqFfk5XEjZ4Jd1Om7gqGBcqBExVQdDEbNouCIWD9Bg4T8bELJtzuwnOAxh6BXg1207dvZ+PevVzRPTIttGNp+7oLy0bAHoRgsSHQx0vzh/5q/uZGM8VdWJoItK/5DG8g0/RiV838EWTa8ympx1Dt4gNmz9KYxTA3b95C3zov0eEjiV4bmjrdHKTSJlcajDuQaa4QZKoeexJ1ePUxw86cs0A04r37D4r7jh0/Idycg4aORJEH0ygt/YSIX+1+o+uU9b4m5huP623oVuVYhWUdMkVWMnjj5i3xEALFB9KhzaWFhFy5R9mzMGlOcCpbgZgVzQo31C05ZKHT9uZ5umZ2Jex9JKP0bCQlp4kC5H10X9FlRxg528h0EB4WEs8rz+ee4HAVHgd5BJYj56KiYgETK0fxMjB9BkP5Q2Hpc6YC0T/dEMh05a1dt0Hkg2l0N5FBk+HY8QyRx4aWVFK9t2zbXu+RSdh7wKOXg/lkWXPwy96DNj397TzvDmSWPZcYsDw2b4sT4w91mSnllnrsuCg3mmPnL2SK+DgQjRg4XJQJBcE1HOtk3sIlIm41yLyXZciJJnpzXMPxNz0ldK+y/EIOMh9I21QZ2AgABw0XFUf7JuvqNdx/kCda+pHEZGETc4Uc7+NGu/Tq1esPZYQOdLZWXidw9OPm5ReISuC6AQ4AlBV3n/cZCMarFARtXyo6QeYKMK5PoDKzAtmd7z94WKij8nz6jRUzgvexUbGAuTxy6YrVIv3sFag2hJgFr5gK3hSZINEHy/wxPsLPgS17LKaFnoI9+w6IRkiAaJ82BDMHrxwA8/6IAUPF6kH2HGwQSv65JzwsdzYejj1okrDMeM0dyDy/78AhUeY0h5JSUh/qJdhjUHzoCuVE0Jx5C+vFhd4imocsk0VRyx5q/GzMNKM45mEZqEGmKceBI3vFqTPmiN5UnQfGy4EgzTzG3SQgs9K4BpcJIoBMNB9OXyxhIoy0oZkoXuPG+wgNIXYd6NBvSSVW7qVKDhwSKexoxqWARBi/2bjlIWWi4h5JTBHmBq/zXpoZtMEZlnExXsJA1WWBKQXIsBkZp4XXRAnL9LPbZAUz/QynPN8byIyTgNH1yBkrhmHjYBqYFiU+nidoHA/QbFHS4m7PcqY3ZcGiKBGG+eg/OBKzv1og1ifTjqZPnbOF6mWc69Zvqh8veAKZphD9xFRblhE9OPG7EsTGKep+A4c762zSNNEIlfQxTco8AcPRHKRHKGHPPgE2y4wDO+ZTDTLDnbtwsc6P3k94ZNiD7U7YIxo8J15oG0eOGi/S0yQgK5miOUEAI0dNqHdkKzByz8zQtUYw1m3YXG9OKOHVe6okB37DR46rh0+JS4A9NBKxO3bWK4M6LI+PZ5wSZkOfOnCVsEwD1ZEeA1ezQ4nDuV7aqbxUfCUsK4XOe/YoPEeFosIyHNfN8jq3/IKHXXccTFG1CLISF/fMB+Pas/eAV4CVdKn37B3oyaDisnERQGVjI+R5mmjs3VwX1nPdChsS41DHSVNkefQaUT4UGqovNx4zvtlzFz40xayEZV1RjZl3poUDYW7M79p1G4Wa8xr96uwVlXDcc8qbsLJemH6G4551xFlQ9ursfUO6sF6dIPUxbS76ZqmWnDnjIhDu16zbIPzE93JzH8qMOqz6mErN6Vm2bhEH41m2Epy9u3X7jld3H1t8YWGxeIdw6fJV9WngOopLjZjmZdfHQlTCck8ThoqmTHNTkemdYJqZp1NnzorNnbekoKBQAKvEx/JgWmga+LN2Qslf+okMUa7q8uGrTufOX/D6qpN4e8fNq060xfkq1IpVMfVlvmLlWo+vTin1RXOGg1kOopmWZdFrRBieJw8sG3qp+FsJo+xpZu1O2Pvt81bFiDQwLfStc6KoSV51UhLkuufiEnavTBA31yWFrvd7+k2glTgYH5vqZW0AAAFeSURBVCvR072u551hnWlgWP52vUf9m+ZFQWGhKHDe+236nWGp4nShUVFpSrES1OG9HT8cn9lrQ/QWj+s1Dn7V5cM8uN7j62+qrBKnMoZoKA7WixKO5dbQ/errDOvr89ThlWO/XnVSAmtlz8EWBxhDI8cgbudutxWhuJvYFXL6lFPRWsm/FvKhg1znfeH6EaotbXku6qG7kG9ncCBGFxYnWggxbT5Pazm0AES45kEHmW+DmM3CViOkyoDpqwVLxAJ7TqUrLj+CToc+7ehwrXCtplsHue4NGA5G+JEZTr1z9KzM/nE0ztE7R9N8c6Qhn69WQWnp+dJBVr3KRXcVV/NxdR2nlukm6z94uBiR820OZf1yS6/U1pg+HWQVyK0RAK3kWQdZB1kT9r4Osg6yDrJWuiU9H+H/wXJdkXVF1hVZV7LwVzKt1KGuyLoi64qsldas5yP8exZdkXVF1oQi/z+BtfkYIeL3LwAAAABJRU5ErkJggg==;" vertex="1" parent="1">
                    <mxGeometry x="532.5" y="194" width="71.71" height="56" as="geometry"/>
                </mxCell>
                <mxCell id="29" value="" style="endArrow=none;html=1;" edge="1" parent="1" source="25">
                    <mxGeometry width="50" height="50" relative="1" as="geometry">
                        <mxPoint x="480" y="124" as="sourcePoint"/>
                        <mxPoint x="530" y="74" as="targetPoint"/>
                    </mxGeometry>
                </mxCell>
                <mxCell id="30" value="" style="endArrow=none;html=1;entryX=0.14;entryY=0.98;entryDx=0;entryDy=0;entryPerimeter=0;" edge="1" parent="1" source="25" target="27">
                    <mxGeometry width="50" height="50" relative="1" as="geometry">
                        <mxPoint x="427.5" y="136.89735099337747" as="sourcePoint"/>
                        <mxPoint x="540" y="84" as="targetPoint"/>
                    </mxGeometry>
                </mxCell>
                <mxCell id="31" value="" style="endArrow=none;html=1;" edge="1" parent="1" source="25">
                    <mxGeometry width="50" height="50" relative="1" as="geometry">
                        <mxPoint x="437.5" y="146.89735099337747" as="sourcePoint"/>
                        <mxPoint x="530" y="210" as="targetPoint"/>
                    </mxGeometry>
                </mxCell>
                <mxCell id="32" value="" style="shape=flexArrow;endArrow=classic;startArrow=classic;html=1;exitX=1;exitY=0.5;exitDx=0;exitDy=0;exitPerimeter=0;" edge="1" parent="1" source="24">
                    <mxGeometry width="100" height="100" relative="1" as="geometry">
                        <mxPoint x="240" y="240" as="sourcePoint"/>
                        <mxPoint x="340" y="140" as="targetPoint"/>
                    </mxGeometry>
                </mxCell>
                <mxCell id="33" value="" style="endArrow=none;dashed=1;html=1;entryX=0;entryY=0.5;entryDx=0;entryDy=0;entryPerimeter=0;" edge="1" parent="1" target="24">
                    <mxGeometry width="50" height="50" relative="1" as="geometry">
                        <mxPoint x="90" y="170" as="sourcePoint"/>
                        <mxPoint x="220" y="144" as="targetPoint"/>
                        <Array as="points">
                            <mxPoint x="200" y="170"/>
                        </Array>
                    </mxGeometry>
                </mxCell>
                <mxCell id="34" value="AgentPool" style="text;html=1;align=center;verticalAlign=middle;resizable=0;points=[];autosize=1;strokeColor=none;fillColor=none;" vertex="1" parent="1">
                    <mxGeometry x="340" y="100" width="70" height="20" as="geometry"/>
                </mxCell>
                <mxCell id="35" value="K8s" style="text;html=1;align=center;verticalAlign=middle;resizable=0;points=[];autosize=1;strokeColor=none;fillColor=none;" vertex="1" parent="1">
                    <mxGeometry x="359" y="166" width="40" height="20" as="geometry"/>
                </mxCell>
            </root>
        </mxGraphModel>
    </diagram>
</mxfile>